# Blender v2.83.5 OBJ File: 'buildings.blend'
# www.blender.org
o Cube.006
v -17.038067 106.079208 -30.909111
v 30.909111 26.722157 -20.937208
v 30.909111 104.137878 30.909111
v -19.630068 54.225151 30.909111
v -17.038067 75.203606 -30.909111
v 30.909111 11.327736 -20.937208
v 30.909111 77.973999 30.909111
v 30.909111 42.116577 -20.937208
v 6.785125 54.225151 30.909111
v 15.454556 104.137878 30.909111
v -19.630068 28.061270 30.909111
v 30.909111 104.137878 15.454556
v 30.909111 26.722157 -5.482653
v 15.313790 106.079208 -30.909111
v 15.313790 75.203606 -30.909111
v 30.909111 42.116577 -5.482653
v 30.909111 11.327736 -5.482653
v 30.909111 77.973999 15.454556
v 6.785125 28.061270 30.909111
v 15.454556 77.973999 30.909111
vt 0.991223 0.338449
vt 0.991223 0.656579
vt 0.673093 0.656579
vt 0.673093 0.338449
vt 0.987473 0.677733
vt 0.987473 0.989688
vt 0.831496 0.989688
vt 0.831496 0.677733
vt 0.993772 0.004259
vt 0.993772 0.995396
vt 0.002635 0.995396
vt 0.002635 0.004259
vt 0.653111 0.334375
vt 0.653111 0.646799
vt 0.340688 0.646799
vt 0.340688 0.334375
vt 0.653111 0.021951
vt 0.340688 0.021951
vt 0.675519 0.989688
vt 0.675519 0.677733
vn 0.0000 0.0000 1.0000
vn 1.0000 0.0000 0.0000
vn 0.0000 0.0000 -1.0000
s off
f 19/1/1 9/2/1 4/3/1 11/4/1
f 18/5/2 12/6/2 3/7/2 7/8/2
f 5/9/3 1/10/3 14/11/3 15/12/3
f 2/13/2 8/14/2 16/15/2 13/16/2
f 6/17/2 2/13/2 13/16/2 17/18/2
f 7/8/1 3/7/1 10/19/1 20/20/1
