# Blender v2.83.5 OBJ File: 'buildings.blend'
# www.blender.org
o Cube.008
v -30.428404 41.308361 -30.428404
v -30.428404 17.016586 -30.428404
v -30.428404 152.457520 30.428404
v -0.218437 41.035309 30.428402
v -0.218437 79.345062 30.428402
v 30.428404 108.930939 -1.257083
v -30.428404 60.463234 -30.428404
v -18.788597 41.035309 30.428402
v -30.428404 41.308361 -19.385656
v -30.428404 36.171463 -30.428404
v -30.428404 137.692108 30.428404
v 18.351723 41.035309 30.428402
v -18.756327 41.308361 -30.428404
v -30.428404 17.016586 -19.385656
v -30.428404 152.457520 15.214202
v -18.756327 17.016586 -30.428404
v -15.214202 152.457520 30.428404
v -18.788597 79.345062 30.428402
v 18.351723 79.345062 30.428402
v -0.218437 60.190186 30.428402
v 30.428404 108.930939 13.957118
v 30.428404 108.930939 -16.471285
v 30.428404 124.727936 -1.257083
v -30.428404 60.463234 -19.385656
v -18.756327 60.463234 -30.428404
v 30.428404 124.727936 -16.471285
v 18.351723 60.190186 30.428402
v -18.788597 60.190186 30.428402
v -15.214202 137.692108 30.428404
v -18.756327 36.171463 -30.428404
v -30.428404 137.692108 15.214202
v -30.428404 36.171463 -19.385656
v 30.428404 124.727936 13.957118
vt 0.986974 0.668774
vt 0.986974 0.995288
vt 0.673182 0.995288
vt 0.673182 0.668774
vt 0.325776 0.831500
vt 0.325776 0.989600
vt 0.164063 0.989600
vt 0.164063 0.831500
vt 0.327681 -0.000264
vt 0.327681 0.328389
vt 0.164063 0.328389
vt 0.164063 -0.000264
vt 0.000444 0.328389
vt 0.000444 -0.000264
vt 0.659530 0.336719
vt 0.659530 0.658723
vt 0.331539 0.658723
vt 0.331539 0.336719
vt 0.325776 0.673400
vt 0.164063 0.673400
vt 0.002350 0.831500
vt 0.002350 0.673400
vt 0.002350 0.989600
vt 0.832031 0.335152
vt 0.832031 0.663804
vt 0.668413 0.663804
vt 0.668413 0.335152
vt 0.662415 0.666663
vt 0.662415 0.997399
vt 0.337585 0.997399
vt 0.337585 0.666663
vt 0.995650 0.335152
vt 0.995650 0.663804
vt 0.003549 0.658723
vt 0.003549 0.336719
vn 0.0000 0.0000 1.0000
vn -1.0000 0.0000 0.0000
vn 0.0000 0.0000 -1.0000
vn 1.0000 0.0000 0.0000
s off
f 29/1/1 17/2/1 3/3/1 11/4/1
f 27/5/1 19/6/1 5/7/1 20/8/1
f 9/9/2 24/10/2 7/11/2 1/12/2
f 1/12/3 7/11/3 25/13/3 13/14/3
f 22/15/4 26/16/4 23/17/4 6/18/4
f 12/19/1 27/5/1 20/8/1 4/20/1
f 4/20/1 20/8/1 28/21/1 8/22/1
f 20/8/1 5/7/1 18/23/1 28/21/1
f 2/24/3 10/25/3 30/26/3 16/27/3
f 11/28/2 3/29/2 15/30/2 31/31/2
f 14/32/2 32/33/2 10/25/2 2/24/2
f 6/18/4 23/17/4 33/34/4 21/35/4
