# Blender v2.83.5 OBJ File: 'buildings.blend'
# www.blender.org
o Cube.006
v -21.576283 107.203644 -30.909111
v -30.909111 43.047226 30.909111
v -0.557757 55.640972 -30.909111
v 9.332829 107.203644 -30.909111
v 30.909111 69.189445 -20.937208
v 30.909111 55.640972 30.909111
v -19.630068 107.968735 30.909111
v -0.557757 29.477093 -30.909111
v 30.909111 53.795025 -20.937208
v 30.909111 29.477093 30.909111
v -30.909111 16.883347 30.909111
v -21.576283 91.790176 -30.909111
v -6.121727 107.203644 -30.909111
v 30.909111 84.583862 -20.937208
v 6.785125 107.968735 30.909111
v -15.454556 43.047226 30.909111
v 15.454556 55.640972 30.909111
v -19.630068 81.804855 30.909111
v 30.909111 55.640972 15.454556
v 30.909111 69.189445 -5.482653
v 14.896798 55.640972 -30.909111
v 9.332829 91.790176 -30.909111
v -30.909111 43.047226 15.454556
v -30.909111 16.883347 15.454556
v -6.121727 91.790176 -30.909111
v 14.896798 29.477093 -30.909111
v 30.909111 84.583862 -5.482653
v 30.909111 53.795025 -5.482653
v 30.909111 29.477093 15.454556
v 6.785125 81.804855 30.909111
v 15.454556 29.477093 30.909111
v -15.454556 16.883347 30.909111
vt 0.668546 0.676120
vt 0.668546 0.993565
vt 0.509824 0.993565
vt 0.509824 0.676120
vt 0.324639 0.674842
vt 0.324639 0.992972
vt 0.006509 0.992972
vt 0.006509 0.674842
vt 0.319339 0.342891
vt 0.319339 0.654845
vt 0.163361 0.654845
vt 0.163361 0.342891
vt 0.330217 0.004291
vt 0.330217 0.326172
vt 0.008335 0.326172
vt 0.008335 0.004291
vt 0.827298 0.676120
vt 0.827298 0.993565
vt 0.668576 0.993565
vt 0.668576 0.676120
vt 0.652098 0.004291
vt 0.652098 0.326172
vt 0.993772 0.004259
vt 0.993772 0.995396
vt 0.002635 0.995396
vt 0.002635 0.004259
vt 0.989504 0.332825
vt 0.989504 0.645249
vt 0.677080 0.645249
vt 0.677080 0.332825
vt 0.989504 0.020401
vt 0.677080 0.020401
vt 0.007384 0.654845
vt 0.007384 0.342891
vn 0.0000 0.0000 1.0000
vn 1.0000 0.0000 0.0000
vn 0.0000 0.0000 -1.0000
vn -1.0000 0.0000 0.0000
s off
f 32/1/1 16/2/1 2/3/1 11/4/1
f 30/5/1 15/6/1 7/7/1 18/8/1
f 29/9/2 19/10/2 6/11/2 10/12/2
f 25/13/3 13/14/3 4/15/3 22/16/3
f 11/17/4 2/18/4 23/19/4 24/20/4
f 12/21/3 1/22/3 13/14/3 25/13/3
f 8/23/3 3/24/3 21/25/3 26/26/3
f 5/27/2 14/28/2 27/29/2 20/30/2
f 9/31/2 5/27/2 20/30/2 28/32/2
f 10/12/1 6/11/1 17/33/1 31/34/1
