# Blender v2.83.5 OBJ File: 'buildings.blend'
# www.blender.org
o Cube.008
v -30.428404 109.237320 -30.428404
v 30.428404 78.025993 -23.138775
v -30.428404 84.945541 -30.428404
v 30.428404 46.659603 -23.138775
v -30.428404 45.732605 30.428404
v -30.428404 133.232178 -30.428404
v 4.899708 99.141319 30.428408
v 30.428404 78.025993 7.289627
v 30.428404 46.659603 7.289627
v 4.899708 137.451065 30.428408
v 30.428404 135.123810 4.764266
v -30.428404 128.392197 -30.428404
v -13.670451 99.141319 30.428408
v -30.428404 109.237320 -19.385656
v -30.428404 104.100418 -30.428404
v 30.428404 62.342800 -23.138775
v -30.428404 30.967205 30.428404
v -30.428404 152.387054 -30.428404
v 23.469868 99.141319 30.428408
v 30.428404 78.025993 -7.924574
v -18.756327 109.237320 -30.428404
v -30.428404 84.945541 -19.385656
v -30.428404 45.732605 15.214202
v -18.756327 84.945541 -30.428404
v 30.428404 46.659603 -7.924574
v 30.428404 62.342800 7.289627
v -15.214202 45.732605 30.428404
v -13.670451 137.451065 30.428408
v 23.469868 137.451065 30.428408
v 4.899708 118.296188 30.428408
v 4.899708 156.605942 30.428408
v 30.428404 135.123810 19.978466
v 30.428404 135.123810 -10.449937
v 30.428404 150.920792 4.764266
v -18.756327 133.232178 -30.428404
v -30.428404 133.232178 -19.385656
v -30.428404 128.392197 -19.385656
v -18.756327 152.387054 -30.428404
v -18.756327 128.392197 -30.428404
v 30.428404 150.920792 -10.449937
v 23.469868 156.605942 30.428408
v 23.469868 118.296188 30.428408
v -13.670451 118.296188 30.428408
v -15.214202 30.967205 30.428404
v 30.428404 62.342800 -7.924574
v -18.756327 104.100418 -30.428404
v -30.428404 30.967205 15.214202
v -30.428404 104.100418 -19.385656
v -13.670451 156.605942 30.428408
v 30.428404 150.920792 19.978466
v -30.428404 152.387054 -19.385656
vt 0.660691 0.336108
vt 0.660691 0.658786
vt 0.329289 0.658786
vt 0.329289 0.336108
vt 0.652989 0.332837
vt 0.652989 0.659350
vt 0.339198 0.659350
vt 0.339198 0.332837
vt 0.656504 0.778765
vt 0.656504 0.885297
vt 0.498047 0.885297
vt 0.498047 0.778765
vt 0.995650 0.333721
vt 0.995650 0.662373
vt 0.832031 0.662373
vt 0.832031 0.333721
vt 0.832031 0.660415
vt 0.832031 0.989067
vt 0.668413 0.989067
vt 0.668413 0.660415
vt 0.668413 0.662373
vt 0.668413 0.333721
vt 0.657576 0.674733
vt 0.657576 0.988679
vt 0.329586 0.988679
vt 0.329586 0.674733
vt 0.656504 0.991829
vt 0.498047 0.991829
vt 0.656504 0.672234
vt 0.498047 0.672234
vt 0.339589 0.778765
vt 0.339589 0.672234
vt 0.339589 0.885297
vt 0.660691 0.013430
vt 0.329289 0.013430
vt 0.992093 0.013430
vt 0.992093 0.336108
vt 0.992093 0.658786
vt 0.832031 0.007027
vt 0.832031 0.335679
vt 0.668413 0.335679
vt 0.668413 0.007027
vt 0.326478 -0.001305
vt 0.326478 0.329430
vt 0.001647 0.329430
vt 0.001647 -0.001305
vt 0.995650 0.007027
vt 0.995650 0.335679
vt 0.339589 0.991829
vt 0.001595 0.988679
vt 0.001595 0.674733
vt 0.995650 0.660415
vt 0.995650 0.989067
vn 1.0000 0.0000 0.0000
vn 0.0000 0.0000 1.0000
vn -1.0000 0.0000 0.0000
vn 0.0000 0.0000 -1.0000
s off
f 45/1/1 20/2/1 8/3/1 26/4/1
f 44/5/2 27/6/2 5/7/2 17/8/2
f 42/9/2 29/10/2 10/11/2 30/12/2
f 14/13/3 37/14/3 12/15/3 1/16/3
f 6/17/4 18/18/4 38/19/4 35/20/4
f 1/16/4 12/15/4 39/21/4 21/22/4
f 33/23/1 40/24/1 34/25/1 11/26/1
f 29/10/2 41/27/2 31/28/2 10/11/2
f 19/29/2 42/9/2 30/12/2 7/30/2
f 7/30/2 30/12/2 43/31/2 13/32/2
f 30/12/2 10/11/2 28/33/2 43/31/2
f 25/34/1 45/1/1 26/4/1 9/35/1
f 4/36/1 16/37/1 45/1/1 25/34/1
f 16/37/1 2/38/1 20/2/1 45/1/1
f 3/39/4 15/40/4 46/41/4 24/42/4
f 17/43/3 5/44/3 23/45/3 47/46/3
f 22/47/3 48/48/3 15/40/3 3/39/3
f 10/11/2 31/28/2 49/49/2 28/33/2
f 11/26/1 34/25/1 50/50/1 32/51/1
f 36/52/3 51/53/3 18/18/3 6/17/3
