# Blender v2.83.5 OBJ File: 'buildings.blend'
# www.blender.org
mtllib ads_s_04_04.mtl
o Cube.022_Cube.016
v -49.738285 163.350967 -49.738289
v -49.738285 136.936646 -49.738289
v -64.785278 247.209167 -1.102036
v -49.738285 110.004326 -49.738289
v -62.056107 235.332077 -0.862026
v -63.776295 328.152954 -0.000000
v -64.809135 247.209167 11.356593
v -49.738285 181.049179 -49.738289
v -49.738285 163.350967 -38.321362
v -49.738285 154.634872 -49.738289
v -49.738285 127.702538 -49.738289
v -38.321362 163.350967 -49.738289
v -49.738285 136.936646 -38.321362
v -38.321362 136.936646 -49.738289
v -62.078968 235.332077 11.077124
v -62.401989 247.209167 23.580488
v -63.776295 328.152954 -18.947731
v -63.776295 328.152954 18.947731
v -63.776295 309.048950 -0.000000
v -63.776295 347.256958 -0.000000
v -38.321362 110.004326 -49.738289
v -49.738285 110.004326 -38.321362
v -49.738285 181.049179 -38.321362
v -38.321362 127.702538 -49.738289
v -38.321362 181.049179 -49.738289
v -63.776295 347.256958 18.947731
v -63.776295 309.048950 18.947731
v -63.776295 309.048950 -18.947731
v -38.321362 154.634872 -49.738289
v -49.738285 154.634872 -38.321362
v -59.772194 235.332077 22.791330
v -63.776295 347.256958 -18.947731
v -49.738285 127.702538 -38.321362
v -45.259304 220.200912 -38.620239
v -47.257641 232.077988 -40.503136
v -36.267891 220.200912 -46.475071
v -37.875004 232.077988 -48.699734
v -25.916853 220.200912 -52.424843
v -27.073586 232.077988 -54.908379
v 20.674524 220.200912 -53.860741
v 21.545010 232.077988 -56.406754
v 31.372313 220.200912 -48.559689
v 32.708267 232.077988 -50.875053
v 40.830341 220.200912 -41.273453
v 42.577820 232.077988 -43.271790
v 48.685184 220.200912 -32.282040
v 50.774429 232.077988 -33.889153
v 54.634945 220.200912 -21.931009
v 56.983070 232.077988 -23.087742
v 59.183029 220.200912 13.133979
v 61.729038 232.077988 13.502945
v 56.070854 220.200912 24.660398
v 58.481457 232.077988 25.530886
v 50.769791 220.200912 35.358177
v 52.949741 232.077988 36.694138
v 43.483536 220.200912 44.816223
v 45.346455 232.077988 46.563705
v 34.492123 220.200912 52.671059
v 35.963821 232.077988 54.760311
v -10.923913 220.200912 63.168877
v -11.428294 232.077988 65.714890
v -22.450325 220.200912 60.056698
v -23.456228 232.077988 62.467297
v -33.148106 220.200912 54.755623
v -34.619476 232.077988 56.935574
v -42.606144 220.200912 47.469368
v -44.489037 232.077988 49.332291
v -50.460968 220.200912 38.477951
v -52.685627 232.077988 39.949646
v -57.846569 220.200912 -18.464500
v -60.392578 232.077988 -19.470402
v -52.545498 220.200912 -29.162285
v -54.860855 232.077988 -30.633652
v -40.003937 235.332077 -41.929298
v -41.773605 247.209167 -43.956169
v -30.064198 235.332077 -48.543327
v -31.401386 247.209167 -50.857979
v -19.025112 235.332077 -53.091106
v -19.881987 247.209167 -55.603634
v -7.310908 235.332077 -55.397892
v -7.658083 247.209167 -58.010796
v 4.628234 235.332077 -55.375023
v 4.800536 247.209167 -57.986919
v 37.269447 235.332077 -41.781288
v 38.861988 247.209167 -43.801712
v 45.695534 235.332077 -33.322849
v 47.654705 247.209167 -34.975250
v 52.309551 235.332077 -23.383104
v 54.556503 247.209167 -24.603018
v 56.857338 235.332077 -12.344003
v 59.302158 247.209167 -13.083595
v 59.164120 235.332077 -0.629790
v 61.709312 247.209167 -0.859694
v 45.547474 235.332077 43.950565
v 47.500206 247.209167 45.660378
v 37.089043 235.332077 52.376644
v 38.673733 247.209167 54.453079
v 27.149288 235.332077 58.990658
v 28.301495 247.209167 61.354874
v 16.110189 235.332077 63.538437
v 16.782080 247.209167 66.100525
v 4.395977 235.332077 65.845207
v 4.558172 247.209167 68.507668
v -48.610439 235.332077 43.770092
v -50.754581 247.209167 45.472054
v -55.224453 235.332077 33.830338
v -57.656384 247.209167 35.099812
v -37.043449 261.965179 58.460419
v -35.471012 250.088104 56.216892
v -26.265896 261.965179 64.710403
v -25.142839 250.088104 62.206268
v -14.476111 261.965179 68.737701
v -13.844649 250.088104 66.065651
v -60.010235 250.088104 16.585520
v -62.650387 261.965179 17.104658
v -60.768284 250.088104 4.670435
v -63.441422 261.965179 4.671149
v -59.187229 250.088104 -7.163579
v -61.791584 261.965179 -7.677767
v -55.327858 250.088104 -18.461781
v -57.764282 261.965179 -19.467564
v -49.338490 250.088104 -28.789938
v -51.514317 261.965179 -30.245106
v -21.245358 250.088104 -50.261189
v -22.198830 261.965179 -52.650589
v -9.707096 250.088104 -53.329185
v -10.158530 261.965179 -55.852070
v 2.207985 250.088104 -54.087215
v 2.274984 261.965179 -56.643078
v 14.042020 250.088104 -52.506165
v 14.623926 261.965179 -54.993237
v 25.340219 250.088104 -48.646790
v 26.413713 261.965179 -50.965939
v 57.139614 250.088104 -14.564252
v 59.596729 261.965179 -15.400451
v 60.207600 250.088104 -3.025993
v 62.798195 261.965179 -3.360160
v 60.965622 250.088104 8.889092
v 63.589199 261.965179 9.073361
v 59.384567 250.088104 20.723122
v 61.939346 261.965179 21.422297
v 55.525181 250.088104 32.021313
v 57.912041 261.965179 33.212074
v 9.904368 250.088104 66.888664
v 10.306237 261.965179 69.596527
v -2.010724 250.088104 67.646690
v -2.127284 261.965179 70.387543
vt 0.991532 0.337110
vt 0.991532 0.664198
vt 0.667124 0.664198
vt 0.667124 0.337110
vt 0.994720 0.671834
vt 0.994720 0.992228
vt 0.832031 0.992228
vt 0.832031 0.671834
vt 0.498047 0.672587
vt 0.498047 0.995382
vt 0.333855 0.995382
vt 0.333855 0.672587
vt 0.669343 0.992228
vt 0.669343 0.671834
vt 0.991532 0.991286
vt 0.667124 0.991286
vt 0.342716 0.664198
vt 0.342716 0.337110
vt 0.166016 0.336801
vt 0.166016 0.663199
vt 0.004219 0.663199
vt 0.004219 0.336801
vt 0.327813 0.336801
vt 0.327813 0.663199
vt 0.164063 0.672734
vt 0.164063 0.995234
vt -0.000174 0.995234
vt -0.000174 0.672734
vt 0.328299 0.672734
vt 0.328299 0.995234
vt 0.342716 0.991286
vt 0.662239 0.672587
vt 0.662239 0.995382
vt 0.328299 0.672734
vt 0.328299 0.995234
vt 0.164063 0.995234
vt 0.164063 0.672734
vt -0.000174 0.995234
vt -0.000174 0.672734
vt 0.991483 0.336000
vt 0.991483 0.660094
vt 0.744765 0.660094
vt 0.744765 0.336000
vt 0.498047 0.660094
vt 0.498047 0.336000
vt 0.251329 0.660094
vt 0.251329 0.336000
vt 0.004611 0.660094
vt 0.004611 0.336000
vt 0.995672 0.670599
vt 0.995672 0.993464
vt 0.747836 0.993464
vt 0.747836 0.670599
vt 0.500000 0.993464
vt 0.500000 0.670599
vt 0.252164 0.993464
vt 0.252164 0.670599
vt 0.004328 0.993464
vt 0.004328 0.670599
vt 0.992808 0.001521
vt 0.992808 0.330511
vt 0.745427 0.330511
vt 0.745427 0.001521
vt 0.498047 0.330511
vt 0.498047 0.001521
vt 0.250666 0.330511
vt 0.250666 0.001521
vt 0.003286 0.330511
vt 0.003286 0.001521
vt 0.663287 0.669698
vt 0.663287 0.994364
vt 0.500000 0.994364
vt 0.500000 0.669698
vt 0.336713 0.994364
vt 0.336713 0.669698
vt 0.991483 0.336000
vt 0.991483 0.660094
vt 0.744765 0.660094
vt 0.744765 0.336000
vt 0.498047 0.660094
vt 0.498047 0.336000
vt 0.251329 0.660094
vt 0.251329 0.336000
vt 0.004611 0.660094
vt 0.004611 0.336000
vt 0.995672 0.670599
vt 0.995672 0.993464
vt 0.747836 0.993464
vt 0.747836 0.670599
vt 0.500000 0.993464
vt 0.500000 0.670599
vt 0.252164 0.993464
vt 0.252164 0.670599
vt 0.004328 0.993464
vt 0.004328 0.670599
vt 0.992808 0.001521
vt 0.992808 0.330511
vt 0.745427 0.330511
vt 0.745427 0.001521
vt 0.498047 0.330511
vt 0.498047 0.001521
vt 0.250666 0.330511
vt 0.250666 0.001521
vt 0.003286 0.330511
vt 0.003286 0.001521
vt 0.663287 0.669698
vt 0.663287 0.994364
vt 0.500000 0.994364
vt 0.500000 0.669698
vt 0.336713 0.994364
vt 0.336713 0.669698
vt 0.164063 0.672734
vt 0.164063 0.995234
vt -0.000174 0.995234
vt -0.000174 0.672734
vt 0.328299 0.672734
vt 0.328299 0.995234
vt 0.991483 0.336000
vt 0.991483 0.660094
vt 0.744765 0.660094
vt 0.744765 0.336000
vt 0.498047 0.660094
vt 0.498047 0.336000
vt 0.251329 0.660094
vt 0.251329 0.336000
vt 0.004611 0.660094
vt 0.004611 0.336000
vt 0.995672 0.670599
vt 0.995672 0.993464
vt 0.747836 0.993464
vt 0.747836 0.670599
vt 0.500000 0.993464
vt 0.500000 0.670599
vt 0.252164 0.993464
vt 0.252164 0.670599
vt 0.004328 0.993464
vt 0.004328 0.670599
vt 0.992808 0.001521
vt 0.992808 0.330511
vt 0.745427 0.330511
vt 0.745427 0.001521
vt 0.498047 0.330511
vt 0.498047 0.001521
vt 0.250666 0.330511
vt 0.250666 0.001521
vt 0.003286 0.330511
vt 0.003286 0.001521
vt 0.663287 0.669698
vt 0.663287 0.994364
vt 0.500000 0.994364
vt 0.500000 0.669698
vt 0.336713 0.994364
vt 0.336713 0.669698
vn -1.0000 0.0000 0.0000
vn 0.0000 0.0000 -1.0000
vn -0.9746 -0.2240 -0.0019
vn -0.9562 -0.2242 0.1883
vn -0.6412 -0.2242 -0.7339
vn -0.4857 -0.2240 -0.8450
vn 0.4332 -0.2192 -0.8742
vn 0.5956 -0.2177 -0.7732
vn 0.7353 -0.2163 -0.6423
vn 0.8467 -0.2148 -0.4867
vn 0.9438 -0.2102 0.2548
vn 0.8761 -0.2096 0.4341
vn 0.7746 -0.2093 0.5968
vn 0.6433 -0.2093 0.7364
vn -0.2547 -0.2130 0.9433
vn -0.4337 -0.2144 0.8752
vn -0.5959 -0.2158 0.7735
vn -0.7351 -0.2173 0.6422
vn -0.8733 -0.2239 -0.4327
vn -0.7720 -0.2242 -0.5947
vn -0.5405 -0.2192 -0.8123
vn -0.3718 -0.2177 -0.9024
vn -0.1886 -0.2163 -0.9579
vn 0.0019 -0.2148 -0.9767
vn 0.6926 -0.2102 -0.6900
vn 0.8140 -0.2096 -0.5417
vn 0.9041 -0.2093 -0.3725
vn 0.9594 -0.2093 -0.1889
vn 0.6896 -0.2130 0.6922
vn 0.5411 -0.2144 0.8132
vn 0.3719 -0.2158 0.9028
vn 0.1886 -0.2173 0.9577
vn -0.8114 -0.2239 0.5399
vn -0.9011 -0.2242 0.3712
vn -0.4889 -0.2240 0.8431
vn -0.3150 -0.2242 0.9222
vn -0.9737 -0.2192 0.0619
vn -0.9674 -0.2177 -0.1292
vn -0.9239 -0.2163 -0.3156
vn -0.8449 -0.2148 -0.4899
vn -0.2512 -0.2102 -0.9448
vn -0.0621 -0.2096 -0.9758
vn 0.1295 -0.2093 -0.9692
vn 0.3161 -0.2093 -0.9254
vn 0.9442 -0.2130 -0.2511
vn 0.9748 -0.2144 -0.0620
vn 0.9678 -0.2158 0.1293
vn 0.9237 -0.2173 0.3155
vn 0.0619 -0.2239 0.9727
vn -0.1291 -0.2242 0.9660
usemtl ads
s off
f 27/1/1 18/2/1 6/3/1 19/4/1
f 9/5/1 23/6/1 8/7/1 1/8/1
f 4/9/2 11/10/2 24/11/2 21/12/2
f 1/8/2 8/7/2 25/13/2 12/14/2
f 18/2/1 26/15/1 20/16/1 6/3/1
f 19/4/1 6/3/1 17/17/1 28/18/1
f 2/19/2 10/20/2 29/21/2 14/22/2
f 13/23/1 30/24/1 10/20/1 2/19/1
f 15/25/3 7/26/3 3/27/3 5/28/3
f 31/29/4 16/30/4 7/26/4 15/25/4
f 6/3/1 20/16/1 32/31/1 17/17/1
f 22/32/1 33/33/1 11/10/1 4/9/1
f 34/34/5 35/35/5 37/36/5 36/37/5
f 36/37/6 37/36/6 39/38/6 38/39/6
f 40/40/7 41/41/7 43/42/7 42/43/7
f 42/43/8 43/42/8 45/44/8 44/45/8
f 44/45/9 45/44/9 47/46/9 46/47/9
f 46/47/10 47/46/10 49/48/10 48/49/10
f 50/50/11 51/51/11 53/52/11 52/53/11
f 52/53/12 53/52/12 55/54/12 54/55/12
f 54/55/13 55/54/13 57/56/13 56/57/13
f 56/57/14 57/56/14 59/58/14 58/59/14
f 60/60/15 61/61/15 63/62/15 62/63/15
f 62/63/16 63/62/16 65/64/16 64/65/16
f 64/65/17 65/64/17 67/66/17 66/67/17
f 66/67/18 67/66/18 69/68/18 68/69/18
f 70/70/19 71/71/19 73/72/19 72/73/19
f 72/73/20 73/72/20 35/74/20 34/75/20
f 74/76/21 75/77/21 77/78/21 76/79/21
f 76/79/22 77/78/22 79/80/22 78/81/22
f 78/81/23 79/80/23 81/82/23 80/83/23
f 80/83/24 81/82/24 83/84/24 82/85/24
f 84/86/25 85/87/25 87/88/25 86/89/25
f 86/89/26 87/88/26 89/90/26 88/91/26
f 88/91/27 89/90/27 91/92/27 90/93/27
f 90/93/28 91/92/28 93/94/28 92/95/28
f 94/96/29 95/97/29 97/98/29 96/99/29
f 96/99/30 97/98/30 99/100/30 98/101/30
f 98/101/31 99/100/31 101/102/31 100/103/31
f 100/103/32 101/102/32 103/104/32 102/105/32
f 104/106/33 105/107/33 107/108/33 106/109/33
f 106/109/34 107/108/34 16/110/34 31/111/34
f 111/112/35 110/113/35 108/114/35 109/115/35
f 113/116/36 112/117/36 110/113/36 111/112/36
f 114/118/37 115/119/37 117/120/37 116/121/37
f 116/121/38 117/120/38 119/122/38 118/123/38
f 118/123/39 119/122/39 121/124/39 120/125/39
f 120/125/40 121/124/40 123/126/40 122/127/40
f 124/128/41 125/129/41 127/130/41 126/131/41
f 126/131/42 127/130/42 129/132/42 128/133/42
f 128/133/43 129/132/43 131/134/43 130/135/43
f 130/135/44 131/134/44 133/136/44 132/137/44
f 134/138/45 135/139/45 137/140/45 136/141/45
f 136/141/46 137/140/46 139/142/46 138/143/46
f 138/143/47 139/142/47 141/144/47 140/145/47
f 140/145/48 141/144/48 143/146/48 142/147/48
f 144/148/49 145/149/49 147/150/49 146/151/49
f 146/151/50 147/150/50 112/152/50 113/153/50
