# Blender v2.83.5 OBJ File: 'buildings.blend'
# www.blender.org
o Cube.010
v -46.181366 310.655029 -44.214043
v -46.181366 353.005066 -44.214043
v -46.181366 331.827209 -44.214043
v -37.278927 58.271362 62.084965
v 31.973425 58.271362 62.084965
v 62.084972 175.468521 0.000000
v -46.181366 327.224792 -44.214043
v -33.551701 310.655029 -44.214043
v -37.278927 93.391502 62.084965
v -46.181366 369.574829 -44.214043
v -46.181366 353.005066 -31.584375
v -46.181366 310.655029 -31.584375
v -46.181366 348.396942 -44.214043
v -33.551701 353.005066 -44.214043
v -46.181366 331.827209 -31.584375
v -33.551701 331.827209 -44.214043
v -2.652750 58.271362 62.084965
v 31.973425 93.391502 62.084965
v 62.084972 175.468521 17.179707
v 62.084972 175.468521 -17.179707
v 62.084972 158.610413 0.000000
v 62.084972 192.326660 0.000000
v -46.181366 369.574829 -31.584375
v -33.551701 369.574829 -44.214043
v 62.084972 192.326660 -17.179707
v 62.084972 158.610413 -17.179707
v 62.084972 158.610413 17.179707
v -33.551701 348.396942 -44.214043
v -33.551701 327.224792 -44.214043
v -46.181366 327.224792 -31.584375
v -46.181366 348.396942 -31.584375
v -2.652750 93.391502 62.084965
v 62.084972 192.326660 17.179707
vt 0.989579 0.337110
vt 0.989579 0.664198
vt 0.665171 0.664198
vt 0.665171 0.337110
vt 0.994720 0.671834
vt 0.994720 0.992228
vt 0.832031 0.992228
vt 0.832031 0.671834
vt 0.669343 0.992228
vt 0.669343 0.671834
vt 0.989579 0.991286
vt 0.665171 0.991286
vt 0.340762 0.664198
vt 0.340762 0.337110
vt 0.166016 0.336801
vt 0.166016 0.663199
vt 0.004219 0.663199
vt 0.004219 0.336801
vt 0.496094 0.332156
vt 0.496094 0.663938
vt 0.330081 0.663938
vt 0.330081 0.332156
vt 0.662107 0.332156
vt 0.662107 0.663938
vt 0.327813 0.336801
vt 0.327813 0.663199
vt 0.331229 0.004163
vt 0.331229 0.326163
vt 0.003105 0.326163
vt 0.003105 0.004163
vt 0.659353 0.004163
vt 0.659353 0.326163
vt 0.340762 0.991286
vn 1.0000 0.0000 0.0000
vn -1.0000 0.0000 0.0000
vn 0.0000 0.0000 -1.0000
vn 0.0000 0.0000 1.0000
s off
f 26/1/1 20/2/1 6/3/1 21/4/1
f 11/5/2 23/6/2 10/7/2 2/8/2
f 2/8/3 10/7/3 24/9/3 14/10/3
f 20/2/1 25/11/1 22/12/1 6/3/1
f 21/4/1 6/3/1 19/13/1 27/14/1
f 3/15/3 13/16/3 28/17/3 16/18/3
f 1/19/3 7/20/3 29/21/3 8/22/3
f 12/23/2 30/24/2 7/20/2 1/19/2
f 15/25/2 31/26/2 13/16/2 3/15/2
f 17/27/4 32/28/4 9/29/4 4/30/4
f 5/31/4 18/32/4 32/28/4 17/27/4
f 6/3/1 22/12/1 33/33/1 19/13/1
