# Blender v2.83.5 OBJ File: 'buildings.blend'
# www.blender.org
o Cube.004
v -31.280796 68.823334 24.462572
v -31.280796 37.542534 24.462572
v -31.280796 68.823334 -6.818223
v -31.280792 25.141718 -31.280792
v 11.352849 52.003716 -31.280788
v 7.505644 68.823334 31.280796
v 7.505644 50.852016 31.280796
v 31.280796 19.532839 5.387213
v 11.352849 34.396645 -31.280788
v -31.280796 37.542534 -6.818223
v -31.280796 53.182930 24.462572
v -31.280792 13.534098 -31.280792
v 20.216915 52.003716 -31.280788
v -31.280796 68.823334 8.822176
v 23.146042 68.823334 31.280796
v 23.146042 50.852016 31.280796
v 7.505644 35.211617 31.280796
v 7.505644 53.182930 31.280796
v 31.280796 19.532839 21.027611
v 31.280796 19.532839 -10.253185
v 31.280796 35.173237 5.387213
v 20.216915 34.396645 -31.280788
v -15.640396 25.141718 -31.280792
v 11.352849 43.200184 -31.280788
v -31.280792 25.141718 -15.640396
v -31.280796 37.542534 8.822176
v -31.280796 53.182930 -6.818223
v -31.280796 53.182930 8.822176
v -31.280792 13.534098 -15.640396
v -15.640396 13.534098 -31.280792
v 31.280796 35.173237 -10.253185
v 23.146042 53.182930 31.280796
v 23.146042 35.211617 31.280796
v 31.280796 35.173237 21.027611
v 20.216915 43.200184 -31.280788
vt 0.986556 0.676289
vt 0.986556 0.986408
vt 0.676436 0.986408
vt 0.676436 0.676289
vt 0.319756 0.342646
vt 0.319756 0.656567
vt 0.005835 0.656567
vt 0.005835 0.342646
vt 0.321402 0.082517
vt 0.321402 0.240307
vt 0.163613 0.240307
vt 0.163613 0.082517
vt 0.496059 0.165853
vt 0.496059 0.327197
vt 0.334715 0.327197
vt 0.334715 0.165853
vt 0.496059 0.004509
vt 0.334715 0.004509
vt 0.657403 0.004509
vt 0.657403 0.165853
vt 0.657403 0.327197
vt 0.005823 0.240307
vt 0.005823 0.082517
vt 0.649863 0.672657
vt 0.649863 0.992795
vt 0.329725 0.992796
vt 0.329725 0.672657
vt 0.009586 0.992796
vt 0.009586 0.672657
vt 0.989833 0.011750
vt 0.989833 0.329966
vt 0.671618 0.329966
vt 0.671618 0.011750
vt 0.989833 0.648181
vt 0.671618 0.648181
vn 0.0000 0.0000 1.0000
vn -1.0000 0.0000 0.0000
vn 0.0000 0.0000 -1.0000
vn 1.0000 0.0000 0.0000
s off
f 33/1/1 16/2/1 7/3/1 17/4/1
f 32/5/1 15/6/1 6/7/1 18/8/1
f 29/9/2 25/10/2 4/11/2 12/12/2
f 28/13/2 14/14/2 3/15/2 27/16/2
f 26/17/2 28/13/2 27/16/2 10/18/2
f 2/19/2 11/20/2 28/13/2 26/17/2
f 11/20/2 1/21/2 14/14/2 28/13/2
f 12/12/3 4/11/3 23/22/3 30/23/3
f 20/24/4 31/25/4 21/26/4 8/27/4
f 8/27/4 21/26/4 34/28/4 19/29/4
f 9/30/3 24/31/3 35/32/3 22/33/3
f 24/31/3 5/34/3 13/35/3 35/32/3
