# Blender v2.83.5 OBJ File: 'buildings.blend'
# www.blender.org
mtllib topper_09.mtl
o Torus
v 14.696293 23.256229 -0.000000
v 10.287405 23.256229 -2.545473
v 10.287405 23.256229 2.545473
v 7.348146 10.528866 0.000001
v 5.143702 14.347075 -2.545472
v 5.143702 14.347075 2.545473
v -7.348145 10.528864 0.000001
v -5.143701 14.347075 -2.545472
v -5.143701 14.347075 2.545473
v -14.696293 23.256227 0.000000
v -10.287405 23.256227 -2.545473
v -10.287405 23.256229 2.545473
v -7.348145 35.983597 -0.000001
v -5.143701 32.165382 -2.545473
v -5.143701 32.165382 2.545472
v 7.348146 35.983593 -0.000001
v 5.143702 32.165382 -2.545473
v 5.143702 32.165382 2.545472
vt 0.250000 0.666667
vt 0.333333 0.666667
vt 0.333333 1.000000
vt 0.250000 1.000000
vt 0.250000 0.000000
vt 0.333333 0.000000
vt 0.333333 0.333333
vt 0.250000 0.333333
vt 0.416667 0.666667
vt 0.416667 1.000000
vt 0.416667 0.000000
vt 0.416667 0.333333
vt 0.500000 0.666667
vt 0.500000 1.000000
vt 0.500000 0.000000
vt 0.500000 0.333333
vt 0.000000 0.666667
vt 0.083333 0.666667
vt 0.083333 1.000000
vt 0.000000 1.000000
vt 0.000000 0.000000
vt 0.083333 0.000000
vt 0.083333 0.333333
vt 0.000000 0.333333
vt 0.166667 0.666667
vt 0.166667 1.000000
vt 0.166667 0.000000
vt 0.166667 0.333333
vn 0.4804 -0.2774 -0.8321
vn -0.8660 0.5000 0.0000
vn 0.4804 -0.2774 0.8321
vn 0.0000 -0.5547 -0.8321
vn 0.0000 1.0000 0.0000
vn 0.0000 -0.5547 0.8321
vn -0.4804 -0.2774 -0.8321
vn 0.8660 0.5000 0.0000
vn -0.4804 -0.2774 0.8321
vn -0.4804 0.2773 -0.8321
vn 0.8660 -0.5000 0.0000
vn -0.4804 0.2774 0.8321
vn 0.0000 0.5547 -0.8321
vn 0.0000 -1.0000 0.0000
vn 0.0000 0.5547 0.8321
vn 0.4804 0.2774 -0.8321
vn -0.8660 -0.5000 0.0000
vn 0.4804 0.2774 0.8321
usemtl ads_large
s off
f 1/1/1 4/2/1 5/3/1 2/4/1
f 2/5/2 5/6/2 6/7/2 3/8/2
f 3/8/3 6/7/3 4/2/3 1/1/3
f 4/2/4 7/9/4 8/10/4 5/3/4
f 5/6/5 8/11/5 9/12/5 6/7/5
f 6/7/6 9/12/6 7/9/6 4/2/6
f 7/9/7 10/13/7 11/14/7 8/10/7
f 8/11/8 11/15/8 12/16/8 9/12/8
f 9/12/9 12/16/9 10/13/9 7/9/9
f 10/17/10 13/18/10 14/19/10 11/20/10
f 11/21/11 14/22/11 15/23/11 12/24/11
f 12/24/12 15/23/12 13/18/12 10/17/12
f 13/18/13 16/25/13 17/26/13 14/19/13
f 14/22/14 17/27/14 18/28/14 15/23/14
f 15/23/15 18/28/15 16/25/15 13/18/15
f 16/25/16 1/1/16 2/4/16 17/26/16
f 17/27/17 2/5/17 3/8/17 18/28/17
f 18/28/18 3/8/18 1/1/18 16/25/18
