# Blender v2.83.5 OBJ File: 'buildings.blend'
# www.blender.org
mtllib topper_11.mtl
o Plane.005_Plane.004
v -3.760304 43.414661 3.760303
v 3.760304 43.414661 -3.760304
v -3.760304 64.686157 3.760304
v 3.760304 64.686157 -3.760303
v -9.295387 -0.008923 -0.000002
v 9.295387 -0.008923 -0.000002
v -9.295387 37.172630 -0.000001
v 9.295387 37.172630 -0.000001
vt 0.500000 0.000000
vt 1.000000 0.000000
vt 1.000000 1.000000
vt 0.500000 1.000000
vt 0.000000 0.000000
vt 0.500000 0.000000
vt 0.500000 1.000000
vt 0.000000 1.000000
vn 0.7071 -0.0000 0.7071
vn 0.0000 -0.0000 1.0000
usemtl ads_large
s off
f 1/1/1 2/2/1 4/3/1 3/4/1
f 5/5/2 6/6/2 8/7/2 7/8/2
