# Blender v2.83.5 OBJ File: 'buildings.blend'
# www.blender.org
mtllib topper_08.mtl
o Icosphere_Icosphere.001
v 0.000000 4.528867 0.000000
v 8.158671 10.761580 5.927552
v -3.116272 10.761580 9.591062
v -10.084743 10.761580 0.000000
v -3.116272 10.761580 -9.591062
v 8.158671 10.761580 -5.927552
v 3.116272 20.846378 9.591062
v -8.158671 20.846378 5.927552
v -8.158671 20.846378 -5.927552
v 3.116272 20.846378 -9.591062
v 10.084743 20.846378 0.000000
v 0.000000 27.079090 0.000000
vt 0.513809 0.182324
vt 0.671270 0.272492
vt 0.671270 0.092157
vt 0.513809 0.362659
vt 0.671270 0.452826
vt 0.513809 0.903663
vt 0.671270 0.993831
vt 0.671270 0.813496
vt 0.513809 0.723329
vt 0.671270 0.633161
vt 0.513809 0.542994
vt 0.828730 0.362659
vt 0.828730 0.182324
vt 0.828730 0.903663
vt 0.828730 0.723329
vt 0.828730 0.542994
vt 0.828730 0.001989
vt 0.986191 0.272492
vt 0.986191 0.092157
vt 0.986191 0.813496
vt 0.986191 0.633161
vt 0.986191 0.452826
vn 0.1876 -0.7947 0.5774
vn 0.6071 -0.7947 0.0000
vn -0.4911 -0.7947 0.3568
vn -0.4911 -0.7947 -0.3568
vn 0.1876 -0.7947 -0.5774
vn 0.9822 -0.1876 0.0000
vn 0.3035 -0.1876 0.9342
vn -0.7946 -0.1876 0.5774
vn -0.7946 -0.1876 -0.5774
vn 0.3035 -0.1876 -0.9342
vn 0.7946 0.1876 0.5774
vn -0.3035 0.1876 0.9342
vn -0.9822 0.1876 0.0000
vn -0.3035 0.1876 -0.9342
vn 0.7946 0.1876 -0.5774
vn 0.4911 0.7947 0.3568
vn -0.1876 0.7947 0.5774
vn -0.6071 0.7947 0.0000
vn -0.1876 0.7947 -0.5774
vn 0.4911 0.7947 -0.3568
usemtl ads_large
s off
f 1/1/1 2/2/1 3/3/1
f 2/2/2 1/4/2 6/5/2
f 1/6/3 3/7/3 4/8/3
f 1/9/4 4/8/4 5/10/4
f 1/11/5 5/10/5 6/5/5
f 2/2/6 6/5/6 11/12/6
f 3/3/7 2/2/7 7/13/7
f 4/8/8 3/7/8 8/14/8
f 5/10/9 4/8/9 9/15/9
f 6/5/10 5/10/10 10/16/10
f 2/2/11 11/12/11 7/13/11
f 3/3/12 7/13/12 8/17/12
f 4/8/13 8/14/13 9/15/13
f 5/10/14 9/15/14 10/16/14
f 6/5/15 10/16/15 11/12/15
f 7/13/16 11/12/16 12/18/16
f 8/17/17 7/13/17 12/19/17
f 9/15/18 8/14/18 12/20/18
f 10/16/19 9/15/19 12/21/19
f 11/12/20 10/16/20 12/22/20
